<svg width="16" height="16" viewBox="0 0 16 16" fill="none" xmlns="http://www.w3.org/2000/svg">
<g clip-path="url(#clip0_2076_29916)">
<path d="M8 16C12.4183 16 16 12.4183 16 8C16 3.58172 12.4183 0 8 0C3.58172 0 0 3.58172 0 8C0 12.4183 3.58172 16 8 16Z" fill="#26A17B"/>
<path fill-rule="evenodd" clip-rule="evenodd" d="M8.95944 8.69216V8.69116C8.90444 8.69516 8.62094 8.71216 7.98844 8.71216C7.48344 8.71216 7.12794 8.69716 7.00294 8.69116V8.69266C5.05894 8.60716 3.60794 8.26866 3.60794 7.86366C3.60794 7.45916 5.05894 7.12066 7.00294 7.03366V8.35566C7.12994 8.36466 7.49394 8.38616 7.99694 8.38616C8.60044 8.38616 8.90294 8.36116 8.95944 8.35616V7.03466C10.8994 7.12116 12.3469 7.45966 12.3469 7.86366C12.3469 8.26866 10.8994 8.60616 8.95944 8.69216ZM8.95944 6.89716V5.71416H11.6664V3.91016H4.29594V5.71416H7.00294V6.89666C4.80294 6.99766 3.14844 7.43366 3.14844 7.95566C3.14844 8.47766 4.80294 8.91316 7.00294 9.01466V12.8057H8.95944V9.01366C11.1559 8.91266 12.8064 8.47716 12.8064 7.95566C12.8064 7.43416 11.1559 6.99866 8.95944 6.89716Z" fill="white"/>
</g>
<defs>
<clipPath id="clip0_2076_29916">
<rect width="16" height="16" fill="white"/>
</clipPath>
</defs>
</svg>
