<svg width="16" height="16" viewBox="0 0 16 16" fill="none" xmlns="http://www.w3.org/2000/svg">
<path d="M9.9997 14.6663V11.9997C10.0924 11.1645 9.85299 10.3264 9.33303 9.66634C11.333 9.66634 13.333 8.33301 13.333 5.99967C13.3864 5.16634 13.153 4.34634 12.6664 3.66634C12.853 2.89967 12.853 2.09967 12.6664 1.33301C12.6664 1.33301 11.9997 1.33301 10.6664 2.33301C8.90637 1.99967 7.09303 1.99967 5.33303 2.33301C3.9997 1.33301 3.33303 1.33301 3.33303 1.33301C3.13303 2.09967 3.13303 2.89967 3.33303 3.66634C2.84761 4.3436 2.61201 5.1682 2.66637 5.99967C2.66637 8.33301 4.66637 9.66634 6.66637 9.66634C6.40637 9.99301 6.21303 10.3663 6.0997 10.7663C5.98637 11.1663 5.95303 11.5863 5.9997 11.9997M5.9997 11.9997V14.6663M5.9997 11.9997C2.99303 13.333 2.66634 10.6663 1.33301 10.6663" stroke="#18181B" stroke-width="1.33" stroke-linecap="round" stroke-linejoin="round"/>
</svg>
