<svg width="16" height="16" viewBox="0 0 16 16" fill="none" xmlns="http://www.w3.org/2000/svg">
<path d="M10.6663 5.33301C11.7272 5.33301 12.7446 5.75444 13.4948 6.50458C14.2449 7.25473 14.6663 8.27214 14.6663 9.33301V13.9997H11.9997V9.33301C11.9997 8.97939 11.8592 8.64025 11.6092 8.3902C11.3591 8.14015 11.02 7.99967 10.6663 7.99967C10.3127 7.99967 9.97358 8.14015 9.72353 8.3902C9.47348 8.64025 9.33301 8.97939 9.33301 9.33301V13.9997H6.66634V9.33301C6.66634 8.27214 7.08777 7.25473 7.83791 6.50458C8.58806 5.75444 9.60548 5.33301 10.6663 5.33301Z" stroke="#18181B" stroke-width="1.33" stroke-linecap="round" stroke-linejoin="round"/>
<path d="M3.99967 5.99967H1.33301V13.9997H3.99967V5.99967Z" stroke="#18181B" stroke-width="1.33" stroke-linecap="round" stroke-linejoin="round"/>
<path d="M2.66634 3.99967C3.40272 3.99967 3.99967 3.40272 3.99967 2.66634C3.99967 1.92996 3.40272 1.33301 2.66634 1.33301C1.92996 1.33301 1.33301 1.92996 1.33301 2.66634C1.33301 3.40272 1.92996 3.99967 2.66634 3.99967Z" stroke="#18181B" stroke-width="1.33" stroke-linecap="round" stroke-linejoin="round"/>
</svg>
