<svg width="41" height="41" viewBox="0 0 41 41" fill="none" xmlns="http://www.w3.org/2000/svg">
<path d="M17.8036 17.8988L7.01263 24.6968C5.63999 25.5627 5.20174 27.4143 6.0369 28.8288L7.97182 32.1378C8.80698 33.5609 10.5931 34.0152 11.9574 33.1494L22.8559 26.2913L34.5729 27.6972C35.1765 27.7658 35.59 27.0971 35.2758 26.5571L23.2776 6.06862C22.9634 5.52855 22.1861 5.6057 21.9794 6.19721L19.3498 13.5696M17.3902 33.8866L17.7954 34.581C18.4486 35.6954 19.8544 36.0554 20.9293 35.3782C22.0043 34.701 22.3516 33.2436 21.6983 32.1292L19.5153 28.4001L15.6124 30.8605M17.845 17.8986L22.856 26.2826" stroke="#861CC4" stroke-width="2" stroke-linecap="round" stroke-linejoin="round"/>
</svg>
