<svg width="24" height="24" viewBox="0 0 24 24" fill="none" xmlns="http://www.w3.org/2000/svg">
<path d="M10.4229 10.4776L4.10624 14.457C3.30274 14.9638 3.0462 16.0477 3.53508 16.8757L4.66772 18.8127C5.15659 19.6457 6.2021 19.9116 7.00076 19.4048L13.3803 15.3903L20.2391 16.2133C20.5924 16.2534 20.8344 15.862 20.6505 15.5459L13.6272 3.55265C13.4432 3.23651 12.9883 3.28167 12.8672 3.62792L11.328 7.94348M10.1809 19.8363L10.4181 20.2428C10.8005 20.8952 11.6234 21.1059 12.2526 20.7095C12.8818 20.3131 13.0851 19.46 12.7027 18.8076L11.4249 16.6248L9.14026 18.0649M10.4471 10.4775L13.3804 15.3852" stroke="#861CC4" stroke-width="2" stroke-linecap="round" stroke-linejoin="round"/>
</svg>
