<svg width="41" height="41" viewBox="0 0 41 41" fill="none" xmlns="http://www.w3.org/2000/svg">
<path d="M30.6341 32.9851C30.6341 28.1476 26.7171 24.2111 21.8601 24.2111H19.1182C14.2808 24.2111 10.3442 28.128 10.3442 32.9851M26.2473 18.4528C26.2473 21.6328 23.6694 24.2107 20.4893 24.2107C17.3093 24.2107 14.7314 21.6328 14.7314 18.4528C14.7314 15.2727 17.3093 12.6948 20.4893 12.6948C23.6694 12.6948 26.2473 15.2727 26.2473 18.4528ZM37.3128 20.4894C37.3128 29.7807 29.7807 37.3128 20.4894 37.3128C11.1981 37.3128 3.66602 29.7807 3.66602 20.4894C3.66602 11.1981 11.1981 3.66602 20.4894 3.66602C29.7807 3.66602 37.3128 11.1981 37.3128 20.4894Z" stroke="#861CC4" stroke-width="2" stroke-linecap="round" stroke-linejoin="round"/>
</svg>
