<svg width="16" height="16" viewBox="0 0 16 16" fill="none" xmlns="http://www.w3.org/2000/svg">
<mask id="path-1-inside-1_1493_198747" fill="white">
<path d="M9.11697 7.08118L13.4882 2H12.4523L8.65682 6.41192L5.62535 2H2.12891L6.71309 8.6716L2.12891 14H3.1648L7.17297 9.34086L10.3744 14H13.8709L9.11672 7.08118H9.11697ZM7.69817 8.73038L7.2337 8.06604L3.53805 2.7798H5.12913L8.11156 7.04596L8.57603 7.71031L12.4528 13.2557H10.8618L7.69817 8.73063V8.73038Z"/>
</mask>
<path d="M9.11697 7.08118L13.4882 2H12.4523L8.65682 6.41192L5.62535 2H2.12891L6.71309 8.6716L2.12891 14H3.1648L7.17297 9.34086L10.3744 14H13.8709L9.11672 7.08118H9.11697ZM7.69817 8.73038L7.2337 8.06604L3.53805 2.7798H5.12913L8.11156 7.04596L8.57603 7.71031L12.4528 13.2557H10.8618L7.69817 8.73063V8.73038Z" fill="black"/>
<path d="M9.11697 7.08118V8.41118H9.72723L10.1252 7.94855L9.11697 7.08118ZM13.4882 2L14.4964 2.86737L16.3868 0.67H13.4882V2ZM12.4523 2V0.67H11.8421L11.4441 1.13262L12.4523 2ZM8.65682 6.41192L7.56065 7.16511L8.53872 8.58857L9.66507 7.2793L8.65682 6.41192ZM5.62535 2L6.72153 1.24681L6.3252 0.67H5.62535V2ZM2.12891 2V0.67H-0.39867L1.03274 2.7532L2.12891 2ZM6.71309 8.6716L7.72131 9.539L8.3893 8.76257L7.80926 7.9184L6.71309 8.6716ZM2.12891 14L1.12068 13.1326L-0.769808 15.33H2.12891V14ZM3.1648 14V15.33H3.77506L4.17305 14.8674L3.1648 14ZM7.17297 9.34086L8.26913 8.58765L7.29105 7.16424L6.16473 8.47349L7.17297 9.34086ZM10.3744 14L9.27827 14.7532L9.6746 15.33H10.3744V14ZM13.8709 14V15.33H16.3985L14.967 13.2468L13.8709 14ZM9.11672 7.08118V5.75118H6.58911L8.02056 7.83439L9.11672 7.08118ZM7.69817 8.73038H9.02817V8.31155L8.78819 7.9683L7.69817 8.73038ZM7.2337 8.06604L6.14366 8.82809L6.14368 8.82812L7.2337 8.06604ZM3.53805 2.7798V1.4498H0.985445L2.44801 3.54186L3.53805 2.7798ZM5.12913 2.7798L6.21917 2.01776L5.82211 1.4498H5.12913V2.7798ZM8.11156 7.04596L7.02151 7.808L7.02154 7.80805L8.11156 7.04596ZM8.57603 7.71031L9.66606 6.94825L9.66604 6.94822L8.57603 7.71031ZM12.4528 13.2557V14.5857H15.0054L13.5429 12.4936L12.4528 13.2557ZM10.8618 13.2557L9.77174 14.0177L10.1688 14.5857H10.8618V13.2557ZM7.69817 8.73063H6.36817V9.14945L6.60815 9.4927L7.69817 8.73063ZM9.11697 7.08118L10.1252 7.94855L14.4964 2.86737L13.4882 2L12.4799 1.13263L8.10872 6.21381L9.11697 7.08118ZM13.4882 2V0.67H12.4523V2V3.33H13.4882V2ZM12.4523 2L11.4441 1.13262L7.64858 5.54454L8.65682 6.41192L9.66507 7.2793L13.4606 2.86738L12.4523 2ZM8.65682 6.41192L9.753 5.65873L6.72153 1.24681L5.62535 2L4.52918 2.75319L7.56065 7.16511L8.65682 6.41192ZM5.62535 2V0.67H2.12891V2V3.33H5.62535V2ZM2.12891 2L1.03274 2.7532L5.61692 9.4248L6.71309 8.6716L7.80926 7.9184L3.22508 1.2468L2.12891 2ZM6.71309 8.6716L5.70487 7.8042L1.12068 13.1326L2.12891 14L3.13713 14.8674L7.72131 9.539L6.71309 8.6716ZM2.12891 14V15.33H3.1648V14V12.67H2.12891V14ZM3.1648 14L4.17305 14.8674L8.18122 10.2082L7.17297 9.34086L6.16473 8.47349L2.15656 13.1326L3.1648 14ZM7.17297 9.34086L6.07681 10.0941L9.27827 14.7532L10.3744 14L11.4706 13.2468L8.26913 8.58765L7.17297 9.34086ZM10.3744 14V15.33H13.8709V14V12.67H10.3744V14ZM13.8709 14L14.967 13.2468L10.2129 6.32797L9.11672 7.08118L8.02056 7.83439L12.7747 14.7532L13.8709 14ZM9.11672 7.08118V8.41118H9.11697V7.08118V5.75118H9.11672V7.08118ZM7.69817 8.73038L8.78819 7.9683L8.32371 7.30396L7.2337 8.06604L6.14368 8.82812L6.60816 9.49246L7.69817 8.73038ZM7.2337 8.06604L8.32373 7.30399L4.62809 2.01775L3.53805 2.7798L2.44801 3.54186L6.14366 8.82809L7.2337 8.06604ZM3.53805 2.7798V4.1098H5.12913V2.7798V1.4498H3.53805V2.7798ZM5.12913 2.7798L4.03908 3.54184L7.02151 7.808L8.11156 7.04596L9.2016 6.28393L6.21917 2.01776L5.12913 2.7798ZM8.11156 7.04596L7.02154 7.80805L7.48602 8.47239L8.57603 7.71031L9.66604 6.94822L9.20157 6.28388L8.11156 7.04596ZM8.57603 7.71031L7.48599 8.47236L11.3628 14.0177L12.4528 13.2557L13.5429 12.4936L9.66606 6.94825L8.57603 7.71031ZM12.4528 13.2557V11.9257H10.8618V13.2557V14.5857H12.4528V13.2557ZM10.8618 13.2557L11.9518 12.4936L8.78819 7.96856L7.69817 8.73063L6.60815 9.4927L9.77174 14.0177L10.8618 13.2557ZM7.69817 8.73063H9.02817V8.73038H7.69817H6.36817V8.73063H7.69817Z" fill="#18181B" mask="url(#path-1-inside-1_1493_198747)"/>
</svg>
