<svg width="24" height="24" viewBox="0 0 24 24" fill="none" xmlns="http://www.w3.org/2000/svg">
<path d="M20.779 16.155H14.569C13.109 16.155 11.914 15.008 11.914 13.606C11.914 12.204 13.109 11.057 14.569 11.057H20.779M14.845 13.597H15.09M3 9.65V5.016C3 3.907 3.906 3 5.015 3H16.984C18.093 3 19 3.907 19 5.016L18.986 6.73M3 13.06V18.449C3 19.558 3.908 20.465 5.016 20.465H18.985C20.094 20.465 21.001 19.558 21.001 18.449V8.745C21.001 7.636 20.094 6.729 18.985 6.729H3" stroke="#861CC4" stroke-width="2" stroke-linecap="round" stroke-linejoin="round"/>
</svg>
