<svg width="156" height="132" viewBox="0 0 156 132" fill="none" xmlns="http://www.w3.org/2000/svg">
<g clip-path="url(#clip0_4759_19739)">
<path d="M23.527 26.8265C24.953 25.1215 26.461 23.4615 28.063 21.8595C57.209 -7.2865 104.464 -7.2865 133.61 21.8595C162.756 51.0055 162.756 98.2605 133.61 127.407C132.008 129.009 130.349 130.517 128.643 131.943C153.16 102.621 151.651 58.9065 124.107 31.3615C96.564 3.8185 52.849 2.3105 23.527 26.8265ZM16.574 41.8245C17.368 40.4325 18.523 39.2775 19.915 38.4835C21.992 37.2985 25.218 35.7125 27.606 35.7125C25.246 35.7125 22.067 34.1625 19.988 32.9825C18.545 32.1625 17.353 30.9715 16.533 29.5275C15.353 27.4485 13.803 24.2695 13.803 21.9095C13.803 24.2965 12.217 27.5225 11.032 29.6005C10.238 30.9925 9.083 32.1475 7.691 32.9415C5.614 34.1265 2.388 35.7125 0 35.7125C2.391 35.7125 5.621 37.3035 7.7 38.4905C9.092 39.2855 10.246 40.4405 11.039 41.8335C12.222 43.9095 13.803 47.1315 13.803 49.5155C13.803 47.1285 15.389 43.9025 16.574 41.8245ZM47.587 119.826C46.279 119.071 44.631 119.293 43.252 120.24C43.6 119.218 44.248 118.339 45.092 117.701C48.866 115.025 54.884 116.958 56.698 121.182C56.696 121.176 56.695 121.168 56.694 121.162C57.106 122.123 58.027 124.269 58.431 125.212C59.268 127.58 61.588 129.546 64.196 129.213C64.2 129.213 64.204 129.212 64.208 129.211C64.295 129.201 64.379 129.18 64.464 129.165C64.468 129.169 64.472 129.172 64.476 129.176C68.511 128.693 71.035 122.07 67.307 119.828C65.999 119.073 64.351 119.294 62.972 120.241C63.32 119.219 63.968 118.339 64.812 117.701C68.631 115.043 74.502 116.908 76.418 121.183C76.416 121.177 76.415 121.169 76.414 121.163C76.885 122.261 77.681 124.118 78.151 125.213C78.988 127.581 81.308 129.547 83.916 129.214C83.921 129.214 83.925 129.213 83.929 129.212C84.016 129.202 84.1 129.18 84.185 129.165C84.189 129.169 84.193 129.174 84.197 129.178C88.232 128.695 90.756 122.071 87.028 119.829C85.72 119.074 84.072 119.295 82.693 120.242C83.041 119.22 83.69 118.341 84.533 117.703C88.352 115.045 94.223 116.909 96.139 121.184C96.137 121.178 96.136 121.17 96.134 121.164C96.605 122.262 97.401 124.119 97.871 125.214C98.708 127.582 101.028 129.548 103.636 129.215C103.641 129.215 103.644 129.214 103.649 129.213C103.736 129.203 103.82 129.182 103.905 129.167C103.909 129.171 103.913 129.174 103.917 129.178C107.952 128.695 110.476 122.072 106.748 119.83C105.44 119.075 103.792 119.296 102.413 120.243C102.761 119.221 103.41 118.342 104.253 117.704C107.995 115.099 113.698 116.843 115.729 120.936C121.701 114.945 126.217 107.5 128.68 99.1705C128.678 99.1705 128.675 99.1705 128.675 99.1705C121.311 105.107 111.948 108.663 101.753 108.663C98.807 108.663 95.931 108.366 93.152 107.801C101.618 105.96 109.153 101.624 114.945 95.5975C109.221 91.7425 105.457 85.2025 105.457 77.7825C105.457 66.2825 114.501 56.8955 125.864 56.3435C122.161 39.9665 109.096 27.1405 92.591 23.7845C89.813 23.2195 86.937 22.9215 83.992 22.9215C60.282 22.9215 41.061 42.1425 41.061 65.8525C41.061 85.3925 54.116 101.88 71.978 107.076C50.655 104.57 34.112 86.4405 34.112 64.4445C34.112 62.5225 34.24 60.6305 34.485 58.7755C30.114 66.3515 27.613 75.1425 27.613 84.5165C27.613 101.585 35.907 116.711 48.678 126.102C49.801 123.905 49.752 121.13 47.588 119.829L47.587 119.826Z" fill="#004DFF"/>
</g>
<defs>
<clipPath id="clip0_4759_19739">
<rect width="155.47" height="131.943" fill="white"/>
</clipPath>
</defs>
</svg>
