<svg width="16" height="17" viewBox="0 0 16 17" fill="none" xmlns="http://www.w3.org/2000/svg">
<path d="M4.07393 6.88233H3.1156C2.52755 6.88233 2.05078 7.3652 2.05078 7.96076V10.1176C2.05078 10.7132 2.52755 11.1961 3.1156 11.1961H4.07393V6.88233ZM4.07393 6.88233C4.07393 4.4998 5.98075 2.5686 8.33319 2.5686C10.6854 2.5686 12.5924 4.4998 12.5924 6.88233M12.5924 11.1961H13.5508C14.1388 11.1961 14.6156 10.7132 14.6156 10.1176V7.96076C14.6156 7.3652 14.1388 6.88233 13.5508 6.88233H12.5924M12.5924 11.1961V6.88233M12.5924 11.1961C12.5924 12.3872 11.6389 13.3529 10.4628 13.3529L9.398 13.3529M9.398 13.3529C9.398 13.9485 8.92127 14.4313 8.33319 14.4313C7.74511 14.4313 7.26837 13.9485 7.26837 13.3529C7.26837 12.7573 7.74511 12.2745 8.33319 12.2745C8.92127 12.2745 9.398 12.7573 9.398 13.3529Z" stroke="#A4A4A4" stroke-linecap="round" stroke-linejoin="round"/>
</svg>
