<svg width="16" height="17" viewBox="0 0 16 17" fill="none" xmlns="http://www.w3.org/2000/svg">
<g clip-path="url(#clip0_3421_9755)">
<path d="M12.6276 4.06C11.752 3.63714 10.827 3.33605 9.87686 3.16669C9.74682 3.41243 9.62936 3.66482 9.52449 3.92274C8.51248 3.76223 7.4837 3.76223 6.47169 3.92274C6.36682 3.66482 6.24936 3.41243 6.11932 3.16669C5.16919 3.33827 4.24318 3.63936 3.36645 4.06222C1.62559 6.78091 1.15367 9.43208 1.38963 12.0456C2.40898 12.8404 3.54998 13.4459 4.76334 13.8334C5.036 13.4459 5.27825 13.0341 5.4859 12.6035C5.09158 12.4485 4.7109 12.2559 4.34805 12.0301C4.44348 11.9571 4.53681 11.8818 4.627 11.8087C6.76323 12.8692 9.2361 12.8692 11.3723 11.8087C11.4636 11.8873 11.5569 11.9626 11.6513 12.0301C11.2884 12.257 10.9067 12.4485 10.5113 12.6046C10.719 13.0352 10.9602 13.4459 11.2339 13.8334C12.4483 13.447 13.5904 12.8426 14.6097 12.0467C14.8866 9.01586 14.1367 6.38905 12.6276 4.06ZM5.78478 10.4383C5.12724 10.4383 4.58401 9.80845 4.58401 9.03358C4.58401 8.2587 5.10836 7.62331 5.78269 7.62331C6.45701 7.62331 6.99605 8.2587 6.98451 9.03358C6.97297 9.80845 6.45491 10.4383 5.78478 10.4383ZM10.2145 10.4383C9.55595 10.4383 9.01482 9.80845 9.01482 9.03358C9.01482 8.2587 9.53917 7.62331 10.2145 7.62331C10.8899 7.62331 11.4248 8.2587 11.4132 9.03358C11.4017 9.80845 10.8847 10.4383 10.2145 10.4383Z" fill="#A4A4A4"/>
</g>
<defs>
<clipPath id="clip0_3421_9755">
<rect width="13.3333" height="10.6667" fill="white" transform="translate(1.33301 3.16669)"/>
</clipPath>
</defs>
</svg>
