<svg width="16" height="17" viewBox="0 0 16 17" fill="none" xmlns="http://www.w3.org/2000/svg">
<path fill-rule="evenodd" clip-rule="evenodd" d="M13.2089 4.11192C13.7826 4.26527 14.2344 4.71705 14.3877 5.29072C14.6663 6.33053 14.6663 8.49998 14.6663 8.49998C14.6663 8.49998 14.6663 10.6694 14.3877 11.7092C14.2344 12.2829 13.7826 12.7347 13.2089 12.888C12.1691 13.1666 7.99967 13.1666 7.99967 13.1666C7.99967 13.1666 3.83022 13.1666 2.79043 12.888C2.21676 12.7347 1.76496 12.2829 1.61163 11.7092C1.33301 10.6694 1.33301 8.49998 1.33301 8.49998C1.33301 8.49998 1.33301 6.33053 1.61163 5.29072C1.76496 4.71705 2.21676 4.26525 2.79043 4.11192C3.83022 3.83331 7.99967 3.83331 7.99967 3.83331C7.99967 3.83331 12.1691 3.83331 13.2089 4.11192ZM10.1212 8.49968L6.63639 10.4693V6.52993L10.1212 8.49968Z" fill="#A4A4A4"/>
</svg>
