<svg width="24" height="24" viewBox="0 0 24 24" fill="none" xmlns="http://www.w3.org/2000/svg">
<g clip-path="url(#clip0_616_36445)">
<path fill-rule="evenodd" clip-rule="evenodd" d="M11.9998 0C5.37318 0 0 5.37239 0 11.9998C0 17.3015 3.43852 21.7995 8.20603 23.3862C8.80598 23.4975 9.02631 23.126 9.02631 22.8092C9.02631 22.523 9.01519 21.5776 9.00978 20.5748C5.67141 21.3009 4.96718 19.1592 4.96718 19.1592C4.42111 17.7724 3.63469 17.4034 3.63469 17.4034C2.54574 16.6586 3.71672 16.6737 3.71672 16.6737C4.92171 16.7586 5.556 17.9105 5.556 17.9105C6.6265 19.745 8.36341 19.2147 9.04825 18.908C9.15603 18.1326 9.46682 17.6029 9.81004 17.3034C7.14475 17.0004 4.34306 15.9712 4.34306 11.3732C4.34306 10.0633 4.8117 8.99261 5.57921 8.15246C5.45474 7.85009 5.04396 6.62952 5.69573 4.97671C5.69573 4.97671 6.70329 4.654 8.99595 6.20666C9.95343 5.94087 10.9799 5.80765 11.9997 5.80288C13.0195 5.80765 14.0469 5.94087 15.0058 6.20666C17.2962 4.65416 18.3025 4.97655 18.3025 4.97655C18.9556 6.62921 18.545 7.84978 18.4202 8.15198C19.1896 8.99229 19.655 10.0628 19.655 11.3727C19.655 15.982 16.848 16.9966 14.176 17.2937C14.6063 17.6663 14.9899 18.3965 14.9899 19.5161C14.9899 21.1217 14.9762 22.4141 14.9762 22.8092C14.9762 23.1287 15.192 23.5026 15.8002 23.385C20.5661 21.7965 23.9999 17.3001 23.9999 12C23.9997 5.37239 18.6271 0 11.9998 0Z" fill="black"/>
<path d="M4.54635 17.2282C4.5198 17.288 4.426 17.3061 4.34064 17.2648C4.2532 17.2257 4.20472 17.1443 4.23285 17.0845C4.25877 17.0233 4.35256 17.0063 4.43952 17.0472C4.52663 17.0864 4.57623 17.1685 4.54635 17.2282ZM5.03105 17.7707C4.97382 17.8238 4.86175 17.7993 4.78624 17.7153C4.70739 17.6316 4.69292 17.5195 4.75094 17.4658C4.80976 17.4128 4.9185 17.4376 4.99687 17.5214C5.07556 17.606 5.09098 17.7169 5.03105 17.7707ZM5.50415 18.4622C5.43055 18.5135 5.31021 18.4657 5.23581 18.3589C5.1622 18.252 5.1622 18.1241 5.2374 18.0727C5.31211 18.0215 5.43055 18.0679 5.50606 18.1735C5.57919 18.2821 5.57919 18.4099 5.50415 18.4622ZM6.15387 19.13C6.08806 19.2025 5.948 19.183 5.84547 19.0839C5.74054 18.9873 5.71129 18.8499 5.77711 18.7774C5.84388 18.7048 5.98473 18.725 6.08806 18.8235C6.19218 18.9199 6.22382 19.0582 6.15387 19.13ZM7.04809 19.5174C7.01884 19.6112 6.88435 19.6542 6.74827 19.6139C6.61235 19.5729 6.52348 19.4629 6.55114 19.368C6.57912 19.2734 6.71488 19.2289 6.8516 19.2717C6.9872 19.3125 7.07639 19.4219 7.04809 19.5174ZM8.02974 19.589C8.03292 19.688 7.91782 19.7702 7.77539 19.7718C7.63167 19.775 7.51547 19.6949 7.51388 19.5976C7.51388 19.4974 7.62675 19.4163 7.76982 19.414C7.9129 19.4108 8.02974 19.4907 8.02974 19.5888M8.94383 19.434C8.96084 19.5303 8.8618 19.6295 8.72 19.6559C8.58074 19.6817 8.45181 19.6219 8.43417 19.5263C8.41668 19.4273 8.51763 19.3283 8.65673 19.3027C8.79869 19.2779 8.92571 19.3359 8.94383 19.434Z" fill="black"/>
</g>
<defs>
<clipPath id="clip0_616_36445">
<rect width="24" height="24" fill="white"/>
</clipPath>
</defs>
</svg>
