<svg width="80" height="80" viewBox="0 0 80 80" fill="none" xmlns="http://www.w3.org/2000/svg">
<path d="M72.0948 63.8384C68.3643 58.844 63.5203 54.7885 57.9477 51.9943C52.3752 49.2001 46.2277 47.7441 39.9938 47.7422C33.76 47.7402 27.6116 49.1923 22.0373 51.983C16.463 54.7738 11.6164 58.8262 7.88281 63.8183C11.5975 68.8357 16.4361 72.9129 22.0107 75.723C27.5854 78.5331 33.7409 79.9978 39.9837 79.9998C46.2266 80.0017 52.383 78.5408 57.9594 75.7343C63.5358 72.9277 68.377 68.8535 72.0948 63.8384Z" fill="white"/>
<path d="M39.9992 42.5805C48.5506 42.5805 55.4828 35.6483 55.4828 27.0969C55.4828 18.5455 48.5506 11.6133 39.9992 11.6133C31.4479 11.6133 24.5156 18.5455 24.5156 27.0969C24.5156 35.6483 31.4479 42.5805 39.9992 42.5805Z" fill="white"/>
</svg>
