<svg width="102" height="47" viewBox="0 0 102 47" fill="none" xmlns="http://www.w3.org/2000/svg">
<g clip-path="url(#clip0_3421_9735)">
<path d="M0 6.33594V37.7804L2.2517 40.0755L4.19547 37.0939L5.5234 34.1907L9.04528 30.5814L7.64038 29.1886H6.29321L2.94453 34.3084V34.9557L2.77132 35.1519V9.16065L0 6.33594Z" fill="#A4A4A4"/>
<path d="M15.5498 7.23834V37.702L17.763 39.9579L28.0785 30.3264V7.23834H25.2302V29.0906C24.8068 29.9929 23.2287 31.6603 18.4174 34.6615V7.23834H15.5691H15.5498Z" fill="#A4A4A4"/>
<path d="M65.3955 7.23834V37.702L67.6087 39.9579L77.9242 30.3264V7.23834H75.0759V29.0906C74.6525 29.9929 73.0744 31.6603 68.2631 34.6615V7.23834H65.4148H65.3955Z" fill="#A4A4A4"/>
<path d="M94.6292 13.0446L88.9134 7.94447H86.5654V39.742H89.2983V21.7345C90.8379 19.4198 92.5892 17.8113 94.4945 16.9482L98.5168 21.048V39.742H100.133L101.981 37.8393V8.33679L100.634 6.92444L94.61 13.0643L94.6292 13.0446ZM96.419 15.3201L98.536 13.1623V16.6148L96.419 15.3201ZM89.3175 12.2208L92.5507 14.9866V15.0455C90.9534 15.8497 89.8949 16.6932 89.3175 17.6152V12.2208Z" fill="#A4A4A4"/>
<path d="M46.3615 25.3439C47.1506 23.9708 46.4385 22.5192 46.3615 22.4015L45.0336 19.8318L43.8019 17.5171C43.6479 17.2032 43.494 16.8698 43.3208 16.5167C42.2238 14.2805 40.5302 11.2792 38.2785 7.57178L37.8551 6.8656L35.6611 9.19991V38.5063L36.7581 39.6636H38.1245L46.3615 25.3243V25.3439ZM38.394 33.8965V12.927L43.6479 22.7154L38.394 33.8769V33.8965Z" fill="#A4A4A4"/>
<path d="M102 0H0V2.86394H102V0Z" fill="#A4A4A4"/>
<path d="M102 44.136H0V47H102V44.136Z" fill="#A4A4A4"/>
<path d="M56.2346 7.23834H53.4248V39.6833H56.2346V7.23834Z" fill="#A4A4A4"/>
</g>
<defs>
<clipPath id="clip0_3421_9735">
<rect width="102" height="47" fill="white"/>
</clipPath>
</defs>
</svg>
