<svg width="156" height="193" viewBox="0 0 156 193" fill="none" xmlns="http://www.w3.org/2000/svg">
<path d="M23.1777 192.975V154.074H45.7407C47.6667 154.074 49.4167 154.5 50.9917 155.352C52.5667 156.205 53.8347 157.39 54.7987 158.909C55.7617 160.429 56.2437 162.225 56.2437 164.3C56.2437 165.523 55.9927 166.689 55.4937 167.801C54.9937 168.912 54.3357 169.895 53.5207 170.746C52.7057 171.599 51.7607 172.284 50.6867 172.803C51.9457 173.285 53.0667 174.017 54.0487 174.998C55.0307 175.98 55.8077 177.101 56.3827 178.36C56.9567 179.62 57.2437 180.991 57.2437 182.472C57.2437 184.548 56.7527 186.382 55.7717 187.974C54.7897 189.567 53.4837 190.8 51.8537 191.669C50.2237 192.54 48.3897 192.975 46.3527 192.975H23.1777ZM32.5147 169.635H43.0177C43.7207 169.635 44.3697 169.45 44.9627 169.079C45.5557 168.709 46.0187 168.227 46.3527 167.634C46.6857 167.042 46.8527 166.411 46.8527 165.745C46.8527 165.004 46.6867 164.347 46.3527 163.772C46.0197 163.199 45.5647 162.744 44.9907 162.411C44.4157 162.078 43.7587 161.91 43.0177 161.91H32.5147V169.635ZM32.5147 185.25H43.9617C44.7767 185.25 45.4807 185.065 46.0737 184.694C46.6657 184.324 47.1387 183.824 47.4907 183.194C47.8427 182.564 48.0187 181.879 48.0187 181.137C48.0187 180.359 47.8427 179.656 47.4907 179.025C47.1387 178.396 46.6657 177.905 46.0737 177.553C45.4807 177.201 44.7767 177.025 43.9617 177.025H32.5147V185.25Z" fill="#B4B4B4"/>
<path d="M59.2422 192.974L71.8012 158.63C72.4682 156.889 73.5242 155.583 74.9692 154.712C76.4142 153.842 78.0442 153.406 79.8602 153.406C81.6762 153.406 83.3142 153.823 84.7782 154.656C86.2412 155.49 87.2872 156.796 87.9182 158.574L100.533 192.973H90.4742L88.0292 185.471H71.5242L68.9682 192.973H59.2432L59.2422 192.974ZM73.9692 177.803H85.6392L80.6932 162.188C80.6182 162.002 80.5172 161.864 80.3872 161.771C80.2572 161.679 80.1002 161.632 79.9152 161.632C79.7292 161.632 79.5722 161.688 79.4422 161.799C79.3122 161.91 79.2282 162.04 79.1922 162.188L73.9692 177.803Z" fill="#B4B4B4"/>
<path d="M104.146 192.974V185.138H120.762C121.503 185.138 122.169 184.962 122.763 184.61C123.355 184.259 123.818 183.787 124.152 183.193C124.485 182.601 124.653 181.952 124.653 181.248C124.653 180.507 124.477 179.841 124.125 179.247C123.773 178.655 123.31 178.173 122.736 177.802C122.161 177.432 121.503 177.246 120.763 177.246H114.761C112.501 177.246 110.454 176.801 108.62 175.912C106.786 175.023 105.314 173.717 104.202 171.994C103.091 170.272 102.535 168.207 102.535 165.798C102.535 163.427 103.053 161.362 104.091 159.602C105.128 157.843 106.527 156.481 108.286 155.517C110.045 154.554 112 154.072 114.149 154.072H131.32V161.908H115.26C114.593 161.908 113.982 162.067 113.426 162.381C112.87 162.696 112.444 163.131 112.148 163.687C111.851 164.243 111.704 164.836 111.704 165.465C111.704 166.169 111.851 166.79 112.148 167.327C112.444 167.865 112.871 168.291 113.426 168.605C113.982 168.921 114.593 169.078 115.26 169.078H121.54C124.022 169.078 126.181 169.55 128.015 170.495C129.849 171.44 131.266 172.765 132.267 174.469C133.267 176.174 133.767 178.174 133.767 180.471C133.767 183.102 133.248 185.361 132.211 187.25C131.173 189.139 129.765 190.566 127.987 191.529C126.209 192.492 124.245 192.974 122.097 192.974H104.146Z" fill="#B4B4B4"/>
<path d="M23.527 26.8265C24.953 25.1215 26.461 23.4615 28.063 21.8595C57.209 -7.2865 104.464 -7.2865 133.61 21.8595C162.756 51.0055 162.756 98.2605 133.61 127.407C132.008 129.008 130.349 130.517 128.643 131.943C153.16 102.621 151.651 58.9065 124.107 31.3615C96.564 3.8185 52.849 2.3105 23.527 26.8265ZM16.574 41.8245C17.368 40.4325 18.523 39.2775 19.915 38.4835C21.992 37.2985 25.218 35.7125 27.606 35.7125C25.246 35.7125 22.067 34.1625 19.988 32.9825C18.545 32.1625 17.353 30.9715 16.533 29.5275C15.353 27.4485 13.803 24.2695 13.803 21.9095C13.803 24.2965 12.217 27.5225 11.032 29.6005C10.238 30.9925 9.083 32.1475 7.691 32.9415C5.614 34.1265 2.388 35.7125 0 35.7125C2.391 35.7125 5.621 37.3035 7.7 38.4905C9.092 39.2855 10.246 40.4405 11.039 41.8335C12.222 43.9095 13.803 47.1315 13.803 49.5155C13.803 47.1285 15.389 43.9025 16.574 41.8245ZM47.587 119.826C46.279 119.072 44.631 119.293 43.252 120.24C43.6 119.217 44.248 118.339 45.092 117.701C48.866 115.024 54.884 116.958 56.698 121.182C56.696 121.176 56.695 121.168 56.694 121.162C57.106 122.123 58.027 124.269 58.431 125.212C59.268 127.579 61.588 129.546 64.196 129.213C64.2 129.213 64.204 129.212 64.208 129.211C64.295 129.201 64.379 129.18 64.464 129.165C64.468 129.169 64.472 129.173 64.476 129.176C68.511 128.693 71.035 122.07 67.307 119.828C65.999 119.073 64.351 119.294 62.972 120.241C63.32 119.218 63.968 118.34 64.812 117.701C68.631 115.044 74.502 116.908 76.418 121.183C76.416 121.177 76.415 121.169 76.414 121.163C76.885 122.261 77.681 124.118 78.151 125.213C78.988 127.581 81.308 129.546 83.916 129.214C83.921 129.214 83.925 129.213 83.929 129.212C84.016 129.202 84.1 129.18 84.185 129.165C84.189 129.169 84.193 129.174 84.197 129.178C88.232 128.695 90.756 122.071 87.028 119.829C85.72 119.074 84.072 119.295 82.693 120.242C83.041 119.219 83.69 118.341 84.533 117.703C88.352 115.045 94.223 116.909 96.139 121.184C96.137 121.178 96.136 121.17 96.134 121.164C96.605 122.262 97.401 124.118 97.871 125.214C98.708 127.581 101.028 129.548 103.636 129.215C103.641 129.215 103.644 129.214 103.649 129.213C103.736 129.203 103.82 129.182 103.905 129.167C103.909 129.171 103.913 129.174 103.917 129.178C107.952 128.695 110.476 122.072 106.748 119.83C105.44 119.075 103.792 119.296 102.413 120.243C102.761 119.22 103.41 118.342 104.253 117.704C107.995 115.099 113.698 116.842 115.729 120.936C121.701 114.945 126.217 107.5 128.68 99.1705C128.678 99.1705 128.676 99.1705 128.675 99.1705C121.311 105.106 111.948 108.663 101.753 108.663C98.807 108.663 95.931 108.366 93.152 107.801C101.618 105.96 109.153 101.624 114.945 95.5975C109.221 91.7425 105.457 85.2025 105.457 77.7825C105.457 66.2825 114.501 56.8955 125.864 56.3435C122.161 39.9665 109.096 27.1405 92.591 23.7845C89.813 23.2195 86.937 22.9215 83.992 22.9215C60.282 22.9215 41.061 42.1425 41.061 65.8525C41.061 85.3925 54.116 101.881 71.978 107.076C50.655 104.571 34.112 86.4405 34.112 64.4445C34.112 62.5225 34.24 60.6305 34.485 58.7755C30.114 66.3515 27.613 75.1425 27.613 84.5165C27.613 101.585 35.907 116.711 48.678 126.102C49.801 123.905 49.752 121.13 47.588 119.829L47.587 119.826Z" fill="#B4B4B4"/>
</svg>
