<svg width="70" height="32" viewBox="0 0 70 32" fill="none" xmlns="http://www.w3.org/2000/svg">
<g clip-path="url(#clip0_1618_21248)">
<path d="M0 4.31445V25.7235L1.54528 27.2861L2.87925 25.256L3.79057 23.2794L6.20755 20.822L5.2434 19.8737H4.31887L2.02075 23.3595V23.8003L1.90189 23.9338V6.23766L0 4.31445Z" fill="#861CC4"/>
<path d="M10.6719 4.92773V25.669L12.1907 27.2049L19.27 20.6473V4.92773H17.3153V19.8059C17.0247 20.4202 15.9417 21.5554 12.6398 23.5989V4.92773H10.6851H10.6719Z" fill="#861CC4"/>
<path d="M44.8789 4.92773V25.669L46.3978 27.2049L53.477 20.6473V4.92773H51.5223V19.8059C51.2317 20.4202 50.1487 21.5554 46.8468 23.5989V4.92773H44.8921H44.8789Z" fill="#861CC4"/>
<path d="M64.9422 8.88179L61.0195 5.40933H59.4082V27.0587H61.2837V14.7983C62.3403 13.2224 63.5422 12.1272 64.8497 11.5396L67.6101 14.3309V27.0587H68.7195L69.9875 25.7633V5.67645L69.0629 4.71484L64.929 8.89514L64.9422 8.88179ZM66.1705 10.431L67.6233 8.96192V11.3125L66.1705 10.431ZM61.2969 8.32085L63.5158 10.204V10.2441C62.4195 10.7916 61.6931 11.3659 61.2969 11.9936V8.32085Z" fill="#861CC4"/>
<path d="M31.8161 17.2548C32.3576 16.3199 31.8689 15.3316 31.8161 15.2515L30.9047 13.5019L30.0594 11.9259C29.9538 11.7122 29.8481 11.4852 29.7293 11.2448C28.9764 9.72224 27.8142 7.67884 26.2689 5.15463L25.9783 4.67383L24.4727 6.26314V26.2164L25.2255 27.0044H26.1632L31.8161 17.2414V17.2548ZM26.3481 23.0778V8.80071L29.9538 15.4651L26.3481 23.0645V23.0778Z" fill="#861CC4"/>
<path d="M70 0H0V1.94992H70V0Z" fill="#861CC4"/>
<path d="M70 30.0508H0V32.0007H70V30.0508Z" fill="#861CC4"/>
<path d="M38.5924 4.92773H36.6641V27.0179H38.5924V4.92773Z" fill="#861CC4"/>
</g>
<defs>
<clipPath id="clip0_1618_21248">
<rect width="70" height="32" fill="white"/>
</clipPath>
</defs>
</svg>
