<svg width="40" height="40" viewBox="0 0 40 40" fill="none" xmlns="http://www.w3.org/2000/svg">
<rect width="40" height="40" rx="20" fill="#861CC4"/>
<g clip-path="url(#clip0_4095_212931)">
<path d="M6 14.752V23.4494L6.62777 24.0842L7.16969 23.2595L7.53992 22.4565L8.52182 21.4581L8.13013 21.0729H7.75454L6.82093 22.489V22.6681L6.77264 22.7223V15.5333L6 14.752Z" fill="white"/>
<path d="M10.3359 15.002V23.4281L10.953 24.052L13.8289 21.388V15.002H13.0348V21.0462C12.9168 21.2958 12.4768 21.757 11.1354 22.5871V15.002H10.3413H10.3359Z" fill="white"/>
<path d="M24.2344 15.002V23.4281L24.8514 24.052L27.7274 21.388V15.002H26.9333V21.0462C26.8152 21.2958 26.3752 21.757 25.0338 22.5871V15.002H24.2397H24.2344Z" fill="white"/>
<path d="M32.381 16.6088L30.7874 15.1982H30.1328V23.9932H30.8947V19.0124C31.324 18.3722 31.8122 17.9273 32.3434 17.6886L33.4648 18.8225V23.9932H33.9155L34.4306 23.4669V15.3067L34.055 14.916L32.3756 16.6143L32.381 16.6088ZM32.88 17.2382L33.4702 16.6414V17.5963L32.88 17.2382ZM30.9001 16.381L31.8015 17.146V17.1623C31.3562 17.3847 31.0611 17.618 30.9001 17.873V16.381Z" fill="white"/>
<path d="M18.9286 20.0114C19.1486 19.6316 18.95 19.2301 18.9286 19.1976L18.5583 18.4868L18.2149 17.8466C18.172 17.7597 18.1291 17.6675 18.0808 17.5698C17.775 16.9513 17.3028 16.1212 16.675 15.0957L16.557 14.9004L15.9453 15.5461V23.6521L16.2511 23.9722H16.6321L18.9286 20.006V20.0114ZM16.7072 22.377V16.5769L18.172 19.2844L16.7072 22.3716V22.377Z" fill="white"/>
<path d="M34.4375 13H6V13.7922H34.4375V13Z" fill="white"/>
<path d="M34.4375 25.209H6V26.0011H34.4375V25.209Z" fill="white"/>
<path d="M21.6818 15.002H20.8984V23.9761H21.6818V15.002Z" fill="white"/>
</g>
<defs>
<clipPath id="clip0_4095_212931">
<rect width="28.4375" height="13" fill="white" transform="translate(6 13)"/>
</clipPath>
</defs>
</svg>
