<svg width="49" height="49" viewBox="0 0 49 49" fill="none" xmlns="http://www.w3.org/2000/svg">
<mask id="mask0_4658_63249" style="mask-type:alpha" maskUnits="userSpaceOnUse" x="0" y="0" width="49" height="49">
<rect width="49" height="49" fill="#D9D9D9"/>
</mask>
<g mask="url(#mask0_4658_63249)">
<path d="M12.2526 28.582H28.5859V24.4987H12.2526V28.582ZM12.2526 22.457H36.7526V18.3737H12.2526V22.457ZM12.2526 16.332H36.7526V12.2487H12.2526V16.332ZM24.5026 44.9154L19.0411 36.7487H8.16927C7.04635 36.7487 6.08507 36.3489 5.28542 35.5492C4.48576 34.7496 4.08594 33.7883 4.08594 32.6654V8.16536C4.08594 7.04245 4.48576 6.08116 5.28542 5.28151C6.08507 4.48186 7.04635 4.08203 8.16927 4.08203H40.8359C41.9589 4.08203 42.9201 4.48186 43.7198 5.28151C44.5194 6.08116 44.9193 7.04245 44.9193 8.16536V32.6654C44.9193 33.7883 44.5194 34.7496 43.7198 35.5492C42.9201 36.3489 41.9589 36.7487 40.8359 36.7487H29.9641L24.5026 44.9154Z" fill="#D4D4D4"/>
</g>
</svg>
