<svg width="48" height="48" viewBox="0 0 48 48" fill="none" xmlns="http://www.w3.org/2000/svg">
<mask id="mask0_4658_169520" style="mask-type:alpha" maskUnits="userSpaceOnUse" x="0" y="0" width="48" height="48">
<rect width="48" height="48" fill="#D9D9D9"/>
</mask>
<g mask="url(#mask0_4658_169520)">
<path d="M29 42C27.3333 42 25.9167 41.4167 24.75 40.25C23.5833 39.0833 23 37.6667 23 36C23 34.3333 23.5833 32.9167 24.75 31.75C25.9167 30.5833 27.3333 30 29 30C30.6667 30 32.0833 30.5833 33.25 31.75C34.4167 32.9167 35 34.3333 35 36C35 37.6667 34.4167 39.0833 33.25 40.25C32.0833 41.4167 30.6667 42 29 42ZM33 28C29.9333 28 27.3333 26.9333 25.2 24.8C23.0667 22.6667 22 20.0667 22 17C22 13.9333 23.0667 11.3333 25.2 9.2C27.3333 7.06667 29.9333 6 33 6C36.0667 6 38.6667 7.06667 40.8 9.2C42.9333 11.3333 44 13.9333 44 17C44 20.0667 42.9333 22.6667 40.8 24.8C38.6667 26.9333 36.0667 28 33 28ZM14 36C11.8 36 9.91667 35.2167 8.35 33.65C6.78333 32.0833 6 30.2 6 28C6 25.8 6.78333 23.9167 8.35 22.35C9.91667 20.7833 11.8 20 14 20C16.2 20 18.0833 20.7833 19.65 22.35C21.2167 23.9167 22 25.8 22 28C22 30.2 21.2167 32.0833 19.65 33.65C18.0833 35.2167 16.2 36 14 36Z" fill="#D4D4D4"/>
</g>
</svg>
