<svg width="48" height="48" viewBox="0 0 48 48" fill="none" xmlns="http://www.w3.org/2000/svg">
<mask id="mask0_4658_169538" style="mask-type:alpha" maskUnits="userSpaceOnUse" x="0" y="0" width="48" height="48">
<rect width="48" height="48" fill="#D9D9D9"/>
</mask>
<g mask="url(#mask0_4658_169538)">
<path d="M8 42C6.9 42 5.95833 41.6083 5.175 40.825C4.39167 40.0417 4 39.1 4 38V16C4 14.9 4.39167 13.9583 5.175 13.175C5.95833 12.3917 6.9 12 8 12H16V8C16 6.9 16.3917 5.95833 17.175 5.175C17.9583 4.39167 18.9 4 20 4H28C29.1 4 30.0417 4.39167 30.825 5.175C31.6083 5.95833 32 6.9 32 8V12H40C41.1 12 42.0417 12.3917 42.825 13.175C43.6083 13.9583 44 14.9 44 16V38C44 39.1 43.6083 40.0417 42.825 40.825C42.0417 41.6083 41.1 42 40 42H8ZM20 12H28V8H20V12Z" fill="#D4D4D4"/>
</g>
</svg>
