<svg width="101" height="101" viewBox="0 0 101 101" fill="none" xmlns="http://www.w3.org/2000/svg">
<path d="M44.4137 10.7125C47.097 5.98973 53.903 5.98974 56.5863 10.7125L59.9062 16.5559C61.4891 19.3419 64.7616 20.6975 67.851 19.8467L74.3303 18.0624C79.5672 16.6202 84.3798 21.4328 82.9376 26.6697L81.1533 33.149C80.3025 36.2384 81.6581 39.5109 84.4442 41.0939L90.2875 44.4137C95.0103 47.097 95.0103 53.903 90.2875 56.5863L84.4441 59.9062C81.6581 61.4891 80.3025 64.7616 81.1533 67.851L82.9376 74.3303C84.3798 79.5672 79.5672 84.3798 74.3303 82.9376L67.851 81.1533C64.7616 80.3025 61.4891 81.6581 59.9061 84.4442L56.5863 90.2875C53.903 95.0103 47.097 95.0103 44.4137 90.2875L41.0938 84.4441C39.5109 81.6581 36.2384 80.3025 33.149 81.1533L26.6697 82.9376C21.4328 84.3798 16.6202 79.5672 18.0624 74.3303L19.8467 67.851C20.6975 64.7616 19.3419 61.4891 16.5558 59.9061L10.7125 56.5863C5.98973 53.903 5.98974 47.097 10.7125 44.4137L16.5559 41.0938C19.3419 39.5109 20.6975 36.2384 19.8467 33.149L18.0624 26.6697C16.6202 21.4328 21.4328 16.6202 26.6697 18.0624L33.149 19.8467C36.2384 20.6975 39.5109 19.3419 41.0939 16.5558L44.4137 10.7125Z" fill="#0284C7"/>
<path d="M46.1796 34.3961C47.8639 31.4316 52.1361 31.4316 53.8204 34.3961V34.3961C54.8139 36.1449 56.8681 36.9958 58.8073 36.4618V36.4618C62.0945 35.5565 65.1154 38.5774 64.2101 41.8646V41.8646C63.6761 43.8037 64.5269 45.8579 66.2758 46.8515V46.8515C69.2403 48.5358 69.2403 52.808 66.2758 54.4922V54.4922C64.5269 55.4858 63.6761 57.54 64.2101 59.4792V59.4792C65.1154 62.7663 62.0945 65.7872 58.8073 64.882V64.882C56.8681 64.3479 54.8139 65.1988 53.8204 66.9476V66.9476C52.1361 69.9121 47.8639 69.9121 46.1796 66.9476V66.9476C45.1861 65.1988 43.1319 64.3479 41.1927 64.882V64.882C37.9055 65.7872 34.8846 62.7663 35.7899 59.4792V59.4792C36.3239 57.54 35.4731 55.4858 33.7242 54.4922V54.4922C30.7597 52.808 30.7597 48.5358 33.7242 46.8515V46.8515C35.4731 45.8579 36.3239 43.8037 35.7899 41.8646V41.8646C34.8846 38.5774 37.9055 35.5565 41.1927 36.4618V36.4618C43.1319 36.9958 45.1861 36.1449 46.1796 34.3961V34.3961Z" fill="#7DD3FC"/>
</svg>
